<svg xmlns="http://www.w3.org/2000/svg" viewBox="0 0 1031.71 297.77"><defs><style>.cls-1{fill:#000049;}.cls-2{fill:#181f6d;}.cls-3{fill:#2b5cfd;}.cls-4{fill:#589bff;}</style></defs><title>Asset 2</title><g id="Layer_2" data-name="Layer 2"><g id="Layer_1-2" data-name="Layer 1"><path class="cls-1" d="M420.83,152.8c0,43.91-28.4,79.33-74.94,79.33S271,196.71,271,152.8s28.39-79.33,74.93-79.33S420.83,108.89,420.83,152.8Zm-29,0c0-30.15-17.27-54.45-46-54.45-28.39,0-46,24.3-46,54.45s17.27,54.45,46,54.45S391.85,183,391.85,152.8Z"/><path class="cls-1" d="M502.49,75.81V100.7H481.13c-8.2,0-14.05,5.26-14.05,18.73V229.78h-29V119.72c0-34.25,13.46-43.91,41.56-43.91Z"/><path class="cls-1" d="M652.07,154.26c0,52.11-36,78.45-71.42,78.45-34.54,0-68.5-25.17-68.5-75.81v-144L541.13,0V91.33a62.64,62.64,0,0,1,45.08-19c32.49,0,65.57,24.88,65.57,82Zm-70.55,51.81c20.49,0,41.28-15.8,41.28-51.81,0-37.17-21.66-56.49-42.74-56.49-19.61,0-38.93,17.27-38.93,53.57v13.17C541.13,190.85,561.33,206.07,581.52,206.07Z"/><path class="cls-1" d="M808.67,253.5c-11.71,29.56-41.27,42.73-70.54,42.73-35.13,0-69.38-19.32-69.38-51.81,0-15.51,7.32-31.32,23.13-41.86-15.23-11.12-24.3-29.86-24.3-56.49V75.52h29v66.16c0,32.2,15.22,48,37.76,47.71s36.88-16.1,36.88-47.71V75.52h29v70.55c0,43.32-24.59,68.49-67.91,68.49-24.88,2.05-37.76,14.64-37.76,27.52,0,19,20.2,28.1,41.57,28.1,20.19,0,41.86-8.2,48-24.59Z"/><path class="cls-1" d="M895.31,204.9v24.88H866.62c-40.68,0-47.42-12.29-47.42-57.08V43.32l29-13.17V75.81h38.35L876.28,100.7h-28.1v79.61c0,20.79,4.69,24.59,24.3,24.59Z"/><path class="cls-1" d="M1031.71,217.49c-14.63,8.2-37.17,14.93-59.42,14.93-36.88,0-73.18-18.44-73.18-79.62,0-53.27,26-79,65.28-79,36,0,58.54,26.05,60.88,75.81v17.27H928.68c4.68,31.61,24.88,41.86,46.54,41.86,16.68,0,34.25-6.15,46-13.17ZM928.09,142.26h67.33c-3.22-29-12.3-43.61-33.37-43.61C941.85,98.65,930.43,113,928.09,142.26Z"/><path class="cls-2" d="M195.68,291.94c5,0,9.78-2,9.78-5.4,0-10.37-28.81-7.32-28.81-21.82,0-8.71,8.33-12.65,17-12.65,9,0,18.41,4.32,19.18,12.15h-8.41c-.46-4.07-6-6.49-11.08-6.49-4.43,0-8.56,1.84-8.56,6,0,11.57,28.81,7.5,28.81,21.81,0,7.89-8.94,12.08-18.11,12.08-8.94,0-18.11-3.94-19.64-12.21h8.41C185.44,290,190.64,291.94,195.68,291.94Z"/><path class="cls-2" d="M234.5,274.77c0-12.59,10.78-22.83,26.37-22.83s26.36,10.24,26.36,22.83-10.47,22.83-26.36,22.83S234.5,287.36,234.5,274.77Zm8.18,0c0,9.41,7.26,17,18.19,17s18.19-7.63,18.19-17-7.26-17-18.19-17S242.68,265.36,242.68,274.77Z"/><path class="cls-2" d="M349.13,291.3V297H310.08V252.52H318V291.3Z"/><path class="cls-2" d="M368.92,282.27V252.58h7.95v28c0,7.63,4.89,11.38,13.6,11.38,7.64,0,12.54-3.81,12.54-11.38v-28H411v29.63c0,10.17-8.25,15.52-20.48,15.52C377.56,297.73,369,292.77,368.92,282.27Z"/><path class="cls-2" d="M447.18,258.24H431.51v-5.72h39.28v5.72H455.12V297h-7.94Z"/><path class="cls-2" d="M491.81,297V252.52h7.94V297Z"/><path class="cls-2" d="M522.68,274.77c0-12.59,10.77-22.83,26.36-22.83s26.37,10.24,26.37,22.83S564.94,297.6,549,297.6,522.68,287.36,522.68,274.77Zm8.17,0c0,9.41,7.26,17,18.19,17s18.19-7.63,18.19-17-7.26-17-18.19-17S530.85,265.36,530.85,274.77Z"/><path class="cls-2" d="M641.05,252.58V297H633.1V284.44l-26.9-22.2v34.85h-7.94V252.58h6l1.91,1.52v.07l26.9,22.13V252.58Z"/><polygon class="cls-3" points="0 297.77 129.39 124.02 182.85 197.22 208.86 197.22 187.67 167.84 205.97 143.28 268.58 227.56 167.92 227.56 142.4 193.37 65.5 297.77 0 297.77"/><polygon class="cls-4" points="273.39 13.73 174.18 148.1 120.72 74.89 94.72 74.89 115.91 104.27 97.61 128.83 35 44.55 135.65 44.55 161.18 78.75 207.9 13.73 273.39 13.73"/></g></g></svg>